# xmcd
#
# Track frame offsets: 
#        150
#        11866
#        24015
#        34938
#        46723
#        57000
#        69259
#        78762
#        94912
#        106203
#        119973
#        130136
#        141590
#        153218
#        163254
#        175059
#        186652
#        199597
#        208930
#        221840
#        231737
#        245216
#        255725
#        266499
#        278069
#        290648
#        303808
#
# Disc length: 4205 seconds
#
# Revision: 3
# Processed by: cddbd v1.5.2PL0 Copyright (c) Steve Scherf et al.
# Submitted via: ExactAudioCopyFreeDBPlugin 1.0
#
DISCID=99106b1b
DTITLE=Maxine Brown - Maxine Brown:  The EP Collection . . . Plus
DYEAR=2000
DGENRE=Rhythm and Blues
TTITLE0=All in My Mind
TTITLE1=Think of Me
TTITLE2=I Don't Need You No More
TTITLE3=After All We've Been Through
TTITLE4=My Life
TTITLE5=What I Don't Know
TTITLE6=Am I Falling in Love
TTITLE7=Ask Me
TTITLE8=Yesterday's Kisses
TTITLE9=Coming Back to You
TTITLE10=Little Girl Lost
TTITLE11=You Upset My Soul
TTITLE12=I Cry Alone
TTITLE13=Put Yourself in My Place
TTITLE14=Oh No, Not My Baby
TTITLE15=It's Gonna Be Alright
TTITLE16=Something You Got (duet with Chuck Jackson)
TTITLE17=One Step at a Time
TTITLE18=Don't Go (duet with Chuck Jackson)
TTITLE19=If You Gotta Make a Fool of Somebody
TTITLE20=One in a Million
TTITLE21=Let Me Give You My Lovin'
TTITLE22=Daddy's Home (duet with Chuck Jackson)
TTITLE23=Let's Go Get Stoned (duet with Chuck Jackson)
TTITLE24=Tennessee Waltz (duet with Chuck Jackson)
TTITLE25=Let it Be Me (duet with Chuck Jackson)
TTITLE26=It's Torture
EXTD=
EXTT0=
EXTT1=
EXTT2=
EXTT3=
EXTT4=
EXTT5=
EXTT6=
EXTT7=
EXTT8=
EXTT9=
EXTT10=
EXTT11=
EXTT12=
EXTT13=
EXTT14=
EXTT15=
EXTT16=
EXTT17=
EXTT18=
EXTT19=
EXTT20=
EXTT21=
EXTT22=
EXTT23=
EXTT24=
EXTT25=
EXTT26=
PLAYORDER=
